<svg width="88" height="88" viewBox="0 0 88 88" fill="none" xmlns="http://www.w3.org/2000/svg">
<path fill-rule="evenodd" clip-rule="evenodd" d="M0.000146375 55.9512C1.84109 58.9252 4.1731 61.5875 6.91519 63.8154C11.6314 67.6473 17.3558 70.0324 23.3976 70.6826C26.2927 70.9942 29.2019 70.9011 32.0431 70.418L27.9035 85.8691C27.7153 86.5714 27.6953 87.3 27.8332 88H18.8576C8.44305 88 0.000146375 79.5571 0.000146375 69.1426V55.9512ZM85.8683 60.0977C86.5708 60.2859 87.2999 60.306 88.0001 60.168V69.1426C88.0001 79.5571 79.5572 88 69.1427 88H55.9513C58.9249 86.1592 61.587 83.8277 63.8146 81.0859C67.6464 76.3697 70.0316 70.6452 70.6818 64.6035C70.9933 61.7084 70.9002 58.7992 70.4171 55.958L85.8683 60.0977ZM40.3664 1.30469C43.7709 0.201429 47.3464 -0.203265 50.881 0.0966797C52.4489 0.229755 54.0097 0.501382 55.5431 0.912109L49.1623 24.7295C50.9005 23.8511 52.7206 23.1693 54.589 22.6904C57.6771 21.899 60.8973 21.6615 64.0978 22.0059C69.2348 22.5587 74.1025 24.5867 78.1124 27.8447C82.1224 31.1028 85.1037 35.4521 86.6964 40.3672C87.7997 43.7718 88.2044 47.3471 87.9044 50.8818C87.7713 52.45 87.4989 54.0103 87.088 55.5439L63.2716 49.1631C64.15 50.9013 64.8318 52.7215 65.3107 54.5898C66.1021 57.678 66.3387 60.8981 65.9943 64.0986C65.4415 69.2357 63.4144 74.1033 60.1564 78.1133C56.8984 82.1232 52.549 85.1045 47.6339 86.6973C44.2294 87.8005 40.6539 88.2052 37.1193 87.9053C35.5512 87.7722 33.9908 87.4997 32.4572 87.0889L38.838 63.2725C37.0999 64.1508 35.2796 64.8317 33.4113 65.3105C30.3232 66.102 27.103 66.3395 23.9025 65.9951C18.7654 65.4423 13.8979 63.4143 9.88784 60.1562C5.87803 56.8983 2.89663 52.5497 1.30386 47.6348C0.200554 44.2301 -0.204165 40.6539 0.0958495 37.1191C0.228958 35.5511 0.500467 33.9906 0.911279 32.457L24.7287 38.8389C23.8503 37.1006 23.1685 35.2805 22.6896 33.4121C21.8982 30.3241 21.6616 27.1038 22.006 23.9033C22.5588 18.7663 24.5859 13.8986 27.8439 9.88867C31.1019 5.87872 35.4513 2.89747 40.3664 1.30469ZM69.1427 0C79.5572 0 88.0001 8.44291 88.0001 18.8574V32.0488C86.1593 29.0753 83.8268 26.4141 81.0851 24.1865C76.3689 20.3547 70.6445 17.9695 64.6027 17.3193C61.7076 17.0078 58.7984 17.1009 55.9572 17.584L60.0968 2.13281C60.2851 1.43007 60.3054 0.700515 60.1671 0H69.1427ZM32.0499 0C29.0757 1.84099 26.4137 4.17377 24.1857 6.91602C20.3538 11.6323 17.9687 17.3566 17.3185 23.3984C17.007 26.2936 17.1 29.2027 17.5832 32.0439L2.13198 27.9033C1.42957 27.7151 0.700364 27.695 0.000146375 27.833V18.8574C0.000146375 8.44291 8.44305 0 18.8576 0H32.0499Z" fill="#404040"/>
</svg>
